# xmcd
#
# Track frame offsets: 
#        150
#        14030
#        33985
#        56370
#        69928
#        82150
#        98090
#        119580
#        140178
#        154518
#        169638
#        186965
#        205120
#
# Disc length: 3016 seconds
#
# Revision: 6
# Processed by: cddbd v1.5.2PL0 Copyright (c) Steve Scherf et al.
# Submitted via: ExactAudioCopy v1.1
#
DISCID=b20bc60d,b30bc50d
DTITLE=Aaron Neville - Warm Your Heart
DYEAR=1991
DGENRE=R&B
TTITLE0=Louisiana 1927
TTITLE1=Everybody Plays The Fool
TTITLE2=It Feels Like Rain
TTITLE3=Somewhere, Somebody
TTITLE4=Don't Go Please Stay
TTITLE5=With You In Mind
TTITLE6=That's The Way She Loves
TTITLE7=Angola Bound
TTITLE8=Close Your Eyes
TTITLE9=La Vie Dansante
TTITLE10=Warm Your Heart
TTITLE11=I Bid You Goodnight
TTITLE12=Ave Maria
EXTD=YEAR: 1991
EXTT0=
EXTT1=
EXTT2=
EXTT3=
EXTT4=
EXTT5=
EXTT6=
EXTT7=
EXTT8=
EXTT9=
EXTT10=
EXTT11=
EXTT12=
PLAYORDER=
